<svg id="Layer_10" data-name="Layer 10" xmlns="http://www.w3.org/2000/svg" viewBox="0 0 622.84 707"><defs><style>.cls-1,.cls-4,.cls-5{fill:none;}.cls-1,.cls-4{stroke:#045ba5;}.cls-1,.cls-2,.cls-5{stroke-miterlimit:10;}.cls-1{stroke-width:4px;}.cls-2,.cls-3{fill:#43c4f2;}.cls-2{stroke:#43c4f2;}.cls-4{stroke-linejoin:round;stroke-width:2px;}.cls-5{stroke:#f7a520;stroke-width:7px;}</style></defs><polyline class="cls-1" points="396.81 273.8 396.81 348.8 113.56 348.8"/><polyline class="cls-1" points="114.11 269.42 114.11 491.42 296.39 491.42"/><line class="cls-1" x1="396.75" y1="422.51" x2="294.75" y2="422.51"/><path class="cls-1" d="M208.84,311.7h424c1.06,1.06,0,297.88,0,297.88h-277v-138" transform="translate(-59.08 -50)"/><rect class="cls-2" x="48.61" y="239.2" width="131" height="45"/><path d="M151.76,316.2h-6.57l-1.53,5.31h-3.57l6.42-19.62h4.08L157,321.51h-3.69Zm-.78-2.73-.69-2.4c-.6-2.07-1.2-4.32-1.77-6.48h-.12c-.54,2.19-1.11,4.41-1.74,6.48l-.69,2.4Z" transform="translate(-59.08 -50)"/><path d="M158.81,301.89h3.48v11.28c0,4.26,1.62,5.67,4,5.67s4.05-1.41,4.05-5.67V301.89h3.36v11c0,6.45-2.88,9-7.41,9s-7.47-2.52-7.47-9Z" transform="translate(-59.08 -50)"/><path d="M178.85,316.62a7.81,7.81,0,0,0,5.13,2.22c2.19,0,3.42-1,3.42-2.52s-1.26-2.13-3.06-2.88l-2.67-1.17c-1.95-.81-4-2.34-4-5.22,0-3.12,2.76-5.52,6.57-5.52a8.68,8.68,0,0,1,6.06,2.49l-1.8,2.22a6.34,6.34,0,0,0-4.26-1.68c-1.86,0-3.06.87-3.06,2.31s1.5,2.1,3.12,2.76l2.64,1.11c2.34,1,4,2.46,4,5.31,0,3.18-2.64,5.82-7.05,5.82a10.09,10.09,0,0,1-7-2.88Z" transform="translate(-59.08 -50)"/><path d="M194.45,301.89H206.3v2.94h-8.37v5.55H205v2.94h-7.11v8.19h-3.48Z" transform="translate(-59.08 -50)"/><rect class="cls-2" x="331.31" y="400.01" width="131" height="45"/><path d="M432.55,462.7h6.6c4.29,0,7.44,1.5,7.44,6.06,0,4.35-3.24,6.36-7.44,6.36H436v7.2h-3.48Zm6.3,9.63c2.94,0,4.32-1.17,4.32-3.57s-1.47-3.27-4.32-3.27H436v6.84Z" transform="translate(-59.08 -50)"/><path d="M458.2,462.34a7.68,7.68,0,0,1,5.58,2.49L461.86,467a5,5,0,0,0-3.63-1.62c-3.21,0-5.52,2.7-5.52,7.11s2.13,7.17,5.4,7.17a5.31,5.31,0,0,0,4.14-1.95l1.92,2.13a7.83,7.83,0,0,1-6.12,2.85c-5,0-8.91-3.6-8.91-10.11S453.16,462.34,458.2,462.34Z" transform="translate(-59.08 -50)"/><path d="M467.38,462.7h11.85v2.94h-8.37v5.55H478v2.94h-7.11v8.19h-3.48Z" transform="translate(-59.08 -50)"/><rect class="cls-3" x="48.61" y="468.92" width="131" height="45"/><path d="M158.19,545.92h-6.57l-1.53,5.31h-3.57l6.42-19.62H157l6.39,19.62h-3.69Zm-.78-2.73-.69-2.4c-.6-2.07-1.2-4.32-1.77-6.48h-.12c-.54,2.19-1.11,4.41-1.74,6.48l-.69,2.4Z" transform="translate(-59.08 -50)"/><path d="M165.75,531.61h3.81l3.54,9.66,1.29,3.72h.12l1.29-3.72,3.45-9.66h3.84v19.62h-3.27v-9c0-1.83.27-4.44.45-6.24h-.12l-1.59,4.47-3.39,8.91h-1.59l-3.39-8.91L168.63,536h-.12c.15,1.8.42,4.41.42,6.24v9h-3.18Z" transform="translate(-59.08 -50)"/><path d="M188,531.61h11.85v2.94h-8.37v5.55h7.11V543h-7.11v8.19H188Z" transform="translate(-59.08 -50)"/><rect class="cls-3" x="331.31" y="537.08" width="131" height="45"/><path d="M432,614.5a7.81,7.81,0,0,0,5.13,2.22c2.19,0,3.42-1,3.42-2.52s-1.26-2.13-3.06-2.88l-2.67-1.17c-1.95-.81-4-2.34-4-5.22,0-3.12,2.76-5.52,6.57-5.52a8.68,8.68,0,0,1,6.06,2.49l-1.8,2.22a6.34,6.34,0,0,0-4.26-1.68c-1.86,0-3.06.87-3.06,2.31s1.5,2.1,3.12,2.76l2.64,1.11c2.34,1,4,2.46,4,5.31,0,3.18-2.64,5.82-7.05,5.82a10.09,10.09,0,0,1-7.05-2.88Z" transform="translate(-59.08 -50)"/><path d="M447.64,599.77h3.81l3.54,9.66,1.29,3.72h.12l1.29-3.72,3.45-9.66H465v19.62h-3.27v-9c0-1.83.27-4.44.45-6.24H462l-1.59,4.47-3.39,8.91h-1.59l-3.39-8.91-1.56-4.47h-.12c.15,1.8.42,4.41.42,6.24v9h-3.18Z" transform="translate(-59.08 -50)"/><path d="M469.9,599.77h11.85v2.94h-8.37v5.55h7.11v2.94h-7.11v8.19H469.9Z" transform="translate(-59.08 -50)"/><rect class="cls-2" x="284.81" y="209.74" width="224" height="103.92"/><path d="M481.12,303.13h3.48v11.28c0,4.26,1.62,5.67,4,5.67s4.05-1.41,4.05-5.67V303.13H496v11c0,6.45-2.88,9-7.41,9s-7.47-2.52-7.47-9Z" transform="translate(-59.08 -50)"/><path d="M500.8,303.13H506c6,0,9.57,3.24,9.57,9.72s-3.57,9.9-9.39,9.9h-5.4Zm5,16.8c4,0,6.24-2.25,6.24-7.08s-2.28-6.9-6.24-6.9h-1.5v14Z" transform="translate(-59.08 -50)"/><path d="M519.49,303.13h3.81l3.54,9.66,1.29,3.72h.12l1.29-3.72,3.45-9.66h3.84v19.62h-3.27v-9c0-1.83.27-4.44.45-6.24h-.12L532.3,312l-3.39,8.91h-1.59L523.93,312l-1.56-4.47h-.12c.15,1.8.42,4.41.42,6.24v9h-3.18Z" transform="translate(-59.08 -50)"/><rect class="cls-4" x="305.22" y="216.17" width="62.82" height="40"/><path d="M370.6,288.4V276.16h2.55v12.3c0,4.05,1.77,5.51,4.11,5.51s4.17-1.46,4.17-5.51v-12.3h2.43V288.4c0,5.64-2.76,7.79-6.6,7.79S370.6,294,370.6,288.4Z" transform="translate(-59.08 -50)"/><path d="M388.84,276.16h4.86c5.91,0,9.12,3.51,9.12,9.75s-3.21,9.93-9,9.93h-5Zm4.68,17.6c4.47,0,6.69-2.88,6.69-7.85s-2.22-7.68-6.69-7.68h-2.16v15.53Z" transform="translate(-59.08 -50)"/><path d="M407.2,276.16h6.15c4,0,6.9,1.44,6.9,5.55,0,3.92-2.91,5.82-6.9,5.82h-3.6v8.31H407.2Zm5.79,9.33c3.06,0,4.74-1.26,4.74-3.78s-1.68-3.51-4.74-3.51h-3.24v7.29Zm1.83,0,6,10.32H418l-5.13-9Z" transform="translate(-59.08 -50)"/><path d="M380.75,327.15h12.09v2.13h-9.57v6.63h8.1V338h-8.1v8.79h-2.52Z" transform="translate(-59.08 -50)"/><path d="M398.18,327.15h12.18v2.13H400.7v6.15h8.16v2.13H400.7v7.14h10v2.13H398.18Z" transform="translate(-59.08 -50)"/><rect class="cls-4" x="305.22" y="266.99" width="62.82" height="40"/><path d="M162.1,201.24l2.23-3.07a8.77,8.77,0,0,0,6.21,2.83,4.8,4.8,0,0,0,5.12-5.08,4.57,4.57,0,0,0-4.89-5,6.9,6.9,0,0,0-4.24,1.49L164.25,191l.8-13.09h14.17V182h-10l-.57,6.4a7.42,7.42,0,0,1,3.5-.85c4.56,0,8.34,2.59,8.34,8.27s-4.44,9.14-9.34,9.14A12.15,12.15,0,0,1,162.1,201.24Z" transform="translate(-59.08 -50)"/><path d="M184.54,190.88c0-8.92,5.65-14.22,12.9-14.22a11.22,11.22,0,0,1,8.24,3.45l-2.58,3.12a7.37,7.37,0,0,0-5.51-2.37c-4.83,0-8.08,3.75-8.08,9.87s2.88,10,8.35,10a6.1,6.1,0,0,0,3.89-1.2v-5.89h-5.14v-4h9.47v12a12.41,12.41,0,0,1-8.7,3.23C190,204.92,184.54,199.9,184.54,190.88Z" transform="translate(-59.08 -50)"/><path d="M218.62,200.93l2.82-3.32a10.7,10.7,0,0,0,7.11,3.11c3.06,0,4.75-1.39,4.75-3.52s-1.76-3-4.24-4l-3.72-1.62c-2.69-1.11-5.52-3.24-5.52-7.23,0-4.34,3.84-7.68,9.16-7.68a11.93,11.93,0,0,1,8.4,3.47l-2.48,3.07a8.81,8.81,0,0,0-5.92-2.34c-2.59,0-4.27,1.21-4.27,3.2s2.08,2.94,4.34,3.86l3.67,1.54c3.25,1.35,5.51,3.41,5.51,7.36,0,4.42-3.66,8.1-9.78,8.1A14.08,14.08,0,0,1,218.62,200.93Z" transform="translate(-59.08 -50)"/><path d="M241.45,194.2c0-6.65,4.61-10.76,9.43-10.76,5.54,0,8.46,4,8.46,9.73a12.29,12.29,0,0,1-.21,2.33h-13c.4,3.64,2.74,5.7,6,5.7a8.75,8.75,0,0,0,4.75-1.48l1.64,3a12.72,12.72,0,0,1-7,2.22C245.88,204.92,241.45,201,241.45,194.2Zm13.74-2c0-3.15-1.4-5.07-4.21-5.07-2.38,0-4.48,1.79-4.9,5.07Z" transform="translate(-59.08 -50)"/><path d="M263.93,183.94h3.94l.37,3.66h.13c1.46-2.67,3.63-4.16,5.82-4.16a5.29,5.29,0,0,1,2.32.42l-.84,4.17a6.9,6.9,0,0,0-2.1-.33c-1.63,0-3.6,1.11-4.83,4.23v12.49h-4.81Z" transform="translate(-59.08 -50)"/><path d="M277.6,183.94h4.87l3.25,10.63c.57,2,1.17,4.12,1.73,6.17h.17c.57-2.05,1.17-4.16,1.74-6.17l3.25-10.63h4.63l-6.95,20.48h-5.55Z" transform="translate(-59.08 -50)"/><path d="M300.24,177.64a3,3,0,1,1,3,2.72A2.74,2.74,0,0,1,300.24,177.64Zm.55,6.3h4.8v20.48h-4.8Z" transform="translate(-59.08 -50)"/><path d="M310.36,194.2c0-6.82,4.82-10.76,10.27-10.76a8.74,8.74,0,0,1,6,2.31l-2.34,3.11a5,5,0,0,0-3.4-1.5c-3.3,0-5.58,2.74-5.58,6.84s2.25,6.8,5.43,6.8a6.77,6.77,0,0,0,4.24-1.76l1.95,3.16a10.07,10.07,0,0,1-6.69,2.52C314.65,204.92,310.36,201,310.36,194.2Z" transform="translate(-59.08 -50)"/><path d="M328.62,194.2c0-6.65,4.62-10.76,9.44-10.76,5.54,0,8.45,4,8.45,9.73a13.34,13.34,0,0,1-.2,2.33h-13c.4,3.64,2.73,5.7,6,5.7a8.76,8.76,0,0,0,4.76-1.48l1.63,3a12.69,12.69,0,0,1-7,2.22C333.06,204.92,328.62,201,328.62,194.2Zm13.74-2c0-3.15-1.4-5.07-4.2-5.07-2.38,0-4.49,1.79-4.9,5.07Z" transform="translate(-59.08 -50)"/><path d="M349.86,194.2c0-6.67,4.18-10.76,8.67-10.76a7.51,7.51,0,0,1,5.37,2.26l-.18-3.31V175h4.8v29.45h-3.94l-.36-2.22h-.14a8.55,8.55,0,0,1-5.82,2.72C353.16,204.92,349.86,201,349.86,194.2Zm13.86,4.45v-9.54a6.06,6.06,0,0,0-4.17-1.7c-2.6,0-4.76,2.47-4.76,6.74,0,4.45,1.71,6.8,4.66,6.8A5.42,5.42,0,0,0,363.72,198.65Z" transform="translate(-59.08 -50)"/><path d="M383.38,177.16h8.72c5.6,0,9.72,1.71,9.72,6.72a6.11,6.11,0,0,1-3.78,5.9V190a6.23,6.23,0,0,1,5.23,6.47c0,5.45-4.47,8-10.47,8h-9.42Zm8.29,11.25c3.8,0,5.42-1.48,5.42-3.85,0-2.63-1.79-3.63-5.32-3.63h-3.56v7.48Zm.63,12.24c4,0,6.24-1.43,6.24-4.5,0-2.87-2.17-4.12-6.24-4.12h-4.09v8.62Z" transform="translate(-59.08 -50)"/><path d="M406.75,198.92c0-4.39,3.64-6.67,12-7.57-.07-2.2-1-4-3.72-4a11.32,11.32,0,0,0-5.75,2l-1.77-3.2a15.93,15.93,0,0,1,8.41-2.69c5.12,0,7.63,3.16,7.63,8.86v12.12h-3.93l-.37-2.27h-.13a9.91,9.91,0,0,1-6.36,2.77A5.73,5.73,0,0,1,406.75,198.92Zm12,0v-4.61c-5.55.7-7.4,2.15-7.4,4.22,0,1.81,1.23,2.6,2.95,2.6S417.27,200.34,418.79,198.94Z" transform="translate(-59.08 -50)"/><path d="M427.33,202.07l2.23-3a9,9,0,0,0,5.66,2.28c2.23,0,3.28-1.05,3.28-2.45,0-1.71-2.22-2.48-4.4-3.32-2.69-1-5.75-2.55-5.75-6s2.86-6.12,7.45-6.12a11,11,0,0,1,6.8,2.46l-2.2,2.95a7.63,7.63,0,0,0-4.48-1.79c-2.06,0-3,1-3,2.27,0,1.62,2.07,2.24,4.29,3,2.77,1,5.87,2.37,5.87,6.19,0,3.52-2.79,6.35-8,6.35A12.79,12.79,0,0,1,427.33,202.07Z" transform="translate(-59.08 -50)"/><path d="M446,194.2c0-6.65,4.62-10.76,9.44-10.76,5.54,0,8.46,4,8.46,9.73a12.29,12.29,0,0,1-.21,2.33h-13c.4,3.64,2.73,5.7,6,5.7a8.76,8.76,0,0,0,4.76-1.48l1.63,3a12.69,12.69,0,0,1-7,2.22C450.42,204.92,446,201,446,194.2Zm13.74-2c0-3.15-1.4-5.07-4.2-5.07-2.38,0-4.48,1.79-4.9,5.07Z" transform="translate(-59.08 -50)"/><path d="M467.22,194.2c0-6.67,4.18-10.76,8.67-10.76a7.51,7.51,0,0,1,5.37,2.26l-.18-3.31V175h4.8v29.45h-3.94l-.36-2.22h-.14a8.53,8.53,0,0,1-5.82,2.72C470.52,204.92,467.22,201,467.22,194.2Zm13.86,4.45v-9.54a6.06,6.06,0,0,0-4.17-1.7c-2.6,0-4.75,2.47-4.75,6.74,0,4.45,1.7,6.8,4.65,6.8A5.42,5.42,0,0,0,481.08,198.65Z" transform="translate(-59.08 -50)"/><path d="M499.31,190.88c0-8.92,5.58-14.22,12.49-14.22a10.84,10.84,0,0,1,7.85,3.45l-2.58,3.12a7.15,7.15,0,0,0-5.17-2.37c-4.44,0-7.62,3.75-7.62,9.87s2.93,10,7.5,10a7.69,7.69,0,0,0,5.82-2.8l2.58,3a10.86,10.86,0,0,1-8.58,4C504.74,204.92,499.31,199.9,499.31,190.88Z" transform="translate(-59.08 -50)"/><path d="M523,194.2c0-6.82,4.63-10.76,9.73-10.76s9.74,3.94,9.74,10.76-4.63,10.72-9.74,10.72S523,201,523,194.2Zm14.54,0c0-4.1-1.8-6.84-4.81-6.84s-4.8,2.74-4.8,6.84,1.8,6.8,4.8,6.8S537.53,198.3,537.53,194.2Z" transform="translate(-59.08 -50)"/><path d="M547.23,183.94h3.93l.37,3.66h.13c1.46-2.67,3.63-4.16,5.82-4.16a5.29,5.29,0,0,1,2.32.42L559,188a7,7,0,0,0-2.11-.33c-1.63,0-3.6,1.11-4.83,4.23v12.49h-4.8Z" transform="translate(-59.08 -50)"/><path d="M561,194.2c0-6.65,4.62-10.76,9.44-10.76,5.53,0,8.45,4,8.45,9.73a12.29,12.29,0,0,1-.21,2.33h-13c.4,3.64,2.74,5.7,6,5.7a8.75,8.75,0,0,0,4.75-1.48l1.64,3a12.69,12.69,0,0,1-7,2.22C565.44,204.92,561,201,561,194.2Zm13.74-2c0-3.15-1.4-5.07-4.2-5.07-2.39,0-4.49,1.79-4.91,5.07Z" transform="translate(-59.08 -50)"/><rect class="cls-5" x="3.5" y="3.5" width="615.84" height="700"/></svg>